<?xml version="1.0" encoding="iso-8859-1"?>
<!-- Uploaded to: SVG Repo, www.svgrepo.com, Generator: SVG Repo Mixer Tools -->
<svg version="1.1" id="Layer_1" xmlns="http://www.w3.org/2000/svg" xmlns:xlink="http://www.w3.org/1999/xlink" 
	 viewBox="0 0 512 512" xml:space="preserve">
<path style="fill:#E7ECED;" d="M256,314.058c95.005-47.503,0-131.951,0-131.951S160.994,266.556,256,314.058z M372.117,256
	c0,64.181-51.936,116.117-116.118,116.117c-64.181,0-116.118-51.936-116.118-116.117s51.936-116.118,116.118-116.118
	C320.181,139.882,372.117,191.819,372.117,256z"/>
<path style="fill:#23A24D;" d="M256,314.058c-95.005-47.503,0-131.951,0-131.951S351.005,266.556,256,314.058z"/>
<path style="fill:#A26234;" d="M419.62,55.433v401.133H92.38V55.433H419.62z M256,372.117c64.181,0,116.118-51.936,116.118-116.117
	S320.182,139.882,256,139.882c-64.181,0-116.118,51.936-116.118,116.118C139.882,320.181,191.819,372.117,256,372.117z"/>
<g>
	<path style="fill:#A58763;" d="M440.732,504.069H71.267v-36.946c0-5.805,4.75-10.557,10.557-10.557H92.38h327.24h10.557
		c5.805,0,10.557,4.75,10.557,10.557v36.946H440.732z"/>
	<path style="fill:#A58763;" d="M440.732,44.877c0,5.805-4.75,10.556-10.557,10.556h-10.557H92.38H81.824
		c-5.805,0-10.557-4.75-10.557-10.556V7.931h369.465L440.732,44.877L440.732,44.877z"/>
</g>
<path style="fill:#814E26;" d="M256,372.117c-64.181,0-116.118-51.936-116.118-116.117S191.818,139.882,256,139.882V55.433H92.38
	v401.133H256V372.117z"/>
<g>
	<path style="fill:#917857;" d="M92.38,456.566H81.824c-5.805,0-10.557,4.75-10.557,10.557v21.112v15.834h184.732v-47.503H92.38z"/>
	<path style="fill:#917857;" d="M256,7.931H71.267v36.946c0,5.805,4.75,10.556,10.557,10.556H92.38H256V7.931z"/>
</g>
<path d="M430.176,63.364c10.194,0,18.486-8.294,18.486-18.486V0h-71.267v15.862h55.405v29.015c0,1.423-1.202,2.625-2.625,2.625
	H84.448c0,0-5.25-1.202-5.25-2.625V23.765v-7.903h271.807V0H63.337v23.765v21.112c0,10.194,8.294,18.486,18.486,18.486h2.625
	v385.272h-2.625c-10.194,0-18.486,8.294-18.486,18.487V512h60.706v-15.862H79.199v-29.015c0-1.423,1.202-2.626,2.625-2.626h348.353
	c1.423,0,2.625,1.202,2.625,2.626v21.112v7.903H145.159V512h303.504v-23.765v-21.112c0-10.194-8.294-18.487-18.486-18.487h-2.625
	V63.364H430.176z M100.31,448.635V100.31h219.026V84.448H100.31V63.364h311.379v348.324H192.663v15.862h219.026v21.085H100.31
	V448.635z"/>
<rect x="345.724" y="84.448" width="31.669" height="15.862"/>
<rect x="134.603" y="411.688" width="31.668" height="15.862"/>
<path d="M364.186,256c0,23.533-7.406,45.896-21.417,64.671c-13.552,18.161-32.867,31.868-54.386,38.597l4.734,15.139
	c25.039-7.829,46.604-23.132,62.364-44.25c16.071-21.536,24.566-47.179,24.566-74.157c0-68.4-55.647-124.049-124.049-124.049v15.862
	C315.654,147.813,364.186,196.346,364.186,256z"/>
<path d="M256,364.186c-59.654,0-108.187-48.533-108.187-108.187c0-22.231,6.674-43.578,19.299-61.731
	c12.345-17.751,29.477-31.27,49.543-39.095l-5.762-14.778c-23.011,8.973-42.652,24.471-56.802,44.816
	c-14.483,20.826-22.139,45.303-22.139,70.788c0,68.4,55.647,124.049,124.049,124.049V364.186z"/>
<path d="M206.356,266.584c2.801,21.18,16.831,38.747,41.713,52.276v26.867h15.862V318.86c24.882-13.529,38.912-31.097,41.713-52.276
	c5.963-45.08-42.318-88.576-44.376-90.405L256,171.496l-5.268,4.683C248.673,178.009,200.393,221.504,206.356,266.584z M256,193.185
	c11.553,11.894,37.763,42.446,33.916,71.353c-1.828,13.736-10.564,25.759-25.985,35.861v-76.068h-15.862v76.068
	c-15.421-10.103-24.156-22.125-25.985-35.861C218.237,235.631,244.449,205.077,256,193.185z"/>
<path d="M348.379,256h-15.862c0,25.346-12.518,49.021-33.485,63.331l8.941,13.102C333.274,315.166,348.379,286.592,348.379,256z"/>
<path d="M163.62,256h15.862c0-25.346,12.518-49.021,33.485-63.331l-8.941-13.102C178.726,196.834,163.62,225.407,163.62,256z"/>
<g>
	<rect x="118.773" y="121.396" style="fill:#FFFFFF;" width="21.112" height="15.862"/>
	<rect x="372.118" y="121.396" style="fill:#FFFFFF;" width="21.112" height="15.862"/>
	<rect x="118.773" y="374.74" style="fill:#FFFFFF;" width="21.112" height="15.862"/>
	<rect x="372.118" y="374.74" style="fill:#FFFFFF;" width="21.112" height="15.862"/>
</g>
</svg>