<?xml version="1.0" encoding="iso-8859-1"?>
<!-- Uploaded to: SVG Repo, www.svgrepo.com, Generator: SVG Repo Mixer Tools -->
<svg height="800px" width="800px" version="1.1" id="Layer_1" xmlns="http://www.w3.org/2000/svg" xmlns:xlink="http://www.w3.org/1999/xlink" 
	 viewBox="0 0 512 512" xml:space="preserve">
<g transform="translate(1 1)">
	<polygon style="fill:#54C9FD;" points="7.707,502.467 50.374,502.467 50.374,297.667 7.707,297.667 	"/>
	<path style="fill:#FFDD09;" d="M496.667,342.04c6.827-5.12,7.68-15.36,2.56-22.187c-11.093-14.507-19.627-18.773-56.32,0.853
		l-74.24,45.227c-23.04,11.947-81.92,8.533-107.52,8.533c0,0,60.587,4.267,36.693-31.573c-11.947-17.92-32.427-28.16-54.613-28.16
		h-33.28c-19.627,0-38.4-5.973-53.76-17.067c-36.693-28.16-105.813,25.6-105.813,25.6v153.6H169.84
		c17.067,0,34.133-1.707,51.2-4.267l110.933-17.067c3.413,0,7.68-0.853,11.093-0.853l0,0c9.387-0.853,17.067-5.973,23.893-11.947
		L496.667,342.04z"/>
	<path style="fill:#FD9808;" d="M499.227,319.853c-5.973-7.68-11.093-12.8-19.627-11.947c0.853,0.853,1.707,2.56,2.56,3.413
		c5.12,6.827,3.413,17.067-2.56,22.187L349.894,434.2c-6.827,5.973-14.507,11.093-23.893,11.947l0,0
		C322.587,447,319.174,447,314.907,447l-110.933,17.067c-17.067,2.56-34.133,4.267-51.2,4.267h-102.4v8.533H169.84
		c17.067,0,34.133-1.707,51.2-4.267l110.933-17.067c3.413,0,7.68-0.853,11.093-0.853l0,0c9.387-0.853,17.067-5.973,23.893-11.947
		L496.667,342.04C503.494,336.067,504.347,326.68,499.227,319.853"/>
	<path style="fill:#FCC309;" d="M150.214,293.4c1.707,0.853,3.413,1.707,5.12,3.413c3.413,2.56,5.973,4.267,9.387,5.973
		c0.853,0,0.853,0.853,1.707,0.853c3.413,1.707,6.827,3.413,10.24,4.267c0.853,0,0.853,0.853,1.707,0.853
		c3.413,0.853,6.827,2.56,11.093,3.413h0.853c3.413,0.853,7.68,1.707,11.947,1.707c1.707,0,4.267,0,5.973,0h33.28
		c0.853,0,0.853,0,1.707,0l0,0c21.333,0,41.813,10.24,54.613,28.16c0.853,1.707,1.707,2.56,2.56,4.267c0,0,0,0.853,0.853,0.853
		c0.853,0.853,0.853,2.56,1.707,3.413l0,0c0,0.853,0.853,2.56,0.853,3.413v0.853c0,0.853,0,1.707,0,2.56l0,0
		c0,0.853,0,1.707-0.853,2.56v0.853c0,0.853-0.853,1.707-0.853,1.707l0,0c-0.853,0.853-0.853,1.707-1.707,1.707c0,0,0,0-0.853,0.853
		c-0.853,0.853-0.853,0.853-1.707,1.707l0,0c-0.853,0.853-1.707,0.853-2.56,1.707h-0.853c-0.853,0-1.707,0.853-2.56,0.853
		c0,0,0,0-0.853,0c-0.853,0-1.707,0.853-2.56,0.853c0,0,0,0-0.853,0s-1.707,0.853-2.56,0.853c0,0,0,0-0.853,0
		c-0.853,0-1.707,0-3.413,0.853l0,0c-0.853,0-1.707,0-2.56,0l0,0c-2.56,0-4.267,0-5.973,0.853c5.12,0,11.947,0,18.773,0
		c28.16,0,63.147,0,79.36-8.533L444.614,319l-8.533-31.573c0,0-18.773-17.067-25.6-17.067s-58.88,0-69.973,0s-30.72-25.6-40.96-25.6
		c-11.093,0-74.24,16.213-78.507,17.067s-93.867-25.6-93.867-25.6l-19.627,39.253c14.507,2.56,29.013,7.68,40.96,14.507
		C147.654,292.547,149.36,293.4,150.214,293.4"/>
	<path style="fill:#FD9808;" d="M387.44,268.653c6.827,0,25.6,17.067,25.6,17.067s8.533,31.573,8.533,42.667l-61.44,37.547
		c3.413-0.853,5.973-1.707,8.533-3.413l74.24-45.227l-8.533-31.573c0,0-18.773-17.067-25.6-17.067"/>
	<g>
		<path style="fill:#FFDD09;" d="M340.507,92.867c46.933,0,85.333-38.4,85.333-85.333C378.907,7.533,340.507,45.933,340.507,92.867"
			/>
		<path style="fill:#FFDD09;" d="M280.774,178.2c-37.547-1.707-66.56-33.28-64.853-70.827
			C253.467,109.08,282.48,140.653,280.774,178.2"/>
	</g>
	<path d="M169.84,485.4h-128V319l3.413-2.56c3.413-2.56,75.093-57.173,116.053-26.453c13.653,10.24,30.72,15.36,48.64,15.36h33.28
		c24.747,0,47.787,11.947,61.44,31.573c7.68,11.093,9.387,20.48,5.12,28.16c21.333,0,44.373-1.707,54.613-7.68l73.387-45.227
		c37.547-19.627,52.907-19.627,68.267,0.853c7.68,10.24,5.973,25.6-4.267,34.133l0,0l-128.853,102.4
		c-8.533,7.68-17.92,12.8-28.16,14.507c-3.413,0.853-7.68,1.707-11.947,1.707L221.894,482.84
		C204.827,483.693,186.907,485.4,169.84,485.4z M58.907,468.333H169.84c16.213,0,33.28-0.853,49.493-3.413l112.64-17.067
		c3.413,0,5.973,0,9.387-0.853h0.853c6.827-0.853,13.653-4.267,18.773-10.24l0.853-0.853l129.707-100.693
		c3.413-2.56,3.413-7.68,1.707-10.24c-6.827-10.24-10.24-14.507-46.08,3.413l-73.387,45.227
		c-19.627,10.24-57.173,11.093-97.28,10.24c-1.707,0-3.413,0-4.267,0c-5.12,0-8.533,0-11.093,0L262,366.787c2.56,0,5.973,0,9.387,0
		c11.093-0.853,21.333-2.56,23.893-6.827c0.853-1.707,0-6.827-3.413-11.947c-11.093-16.213-29.013-24.747-48.64-24.747h-33.28
		c-21.333,0-42.667-6.827-58.88-18.773c-23.893-18.773-71.68,8.533-92.16,23.04C58.907,327.533,58.907,468.333,58.907,468.333z
		 M496.667,342.04L496.667,342.04L496.667,342.04z"/>
	<path d="M58.907,511H-0.826V289.133h59.733V511z M16.24,493.933h25.6V306.2h-25.6V493.933z"/>
	<path d="M153.627,409.453c-5.12,0-8.533-3.413-8.533-8.533c0-21.333,16.213-34.133,42.667-34.133h82.773
		c5.12,0,8.533,3.413,8.533,8.533s-3.413,8.533-8.533,8.533H187.76c-25.6,0-25.6,12.8-25.6,17.067
		C162.16,406.04,158.747,409.453,153.627,409.453z"/>
	<path d="M442.907,287.427l-0.853-2.56l-1.707-1.707c-10.24-9.387-23.04-19.627-31.573-19.627H338.8
		c-3.413,0-11.947-6.827-16.213-11.093c-8.533-7.68-17.067-14.507-24.747-14.507c-10.24,0-52.907,10.24-79.36,17.067
		c-8.533-1.707-57.173-15.36-90.453-25.6l-6.827-1.707L93.04,283.16l10.24,3.413c14.507,2.56,41.813,14.507,42.667,15.36
		c1.707,0.853,3.413,1.707,4.267,2.56c2.56,1.707,19.627,11.093,23.04,12.8l1.707,0.853c4.267,1.707,22.187,5.12,26.453,5.12
		c2.56,0,4.267,0,6.827,0h34.987c19.627,0,37.547,8.533,47.787,26.453c8.533,15.36-10.24,17.067-11.947,17.067
		c-0.853,0-1.707,0-2.56,0c-2.56,0-4.267,0-5.973,0v17.067h18.773c3.413,0,6.827,0,10.24,0c28.16,0,58.027-1.707,74.24-10.24
		l75.093-46.08l0.853-0.853C452.294,323.267,452.294,323.267,442.907,287.427z M363.547,359.107
		c-11.947,5.973-36.693,7.68-55.467,7.68c0.853,0,0.853-0.853,0.853-0.853l0.853-1.707c0-1.707,0.853-3.413,0.853-5.12
		c0-0.853,0-2.56,0-4.267v-0.853c0-1.707,0-3.413-0.853-5.12c0-1.707-0.853-3.413-1.707-5.12l-0.853-0.853
		c-0.853-1.707-1.707-3.413-2.56-5.12c-13.653-19.627-36.693-31.573-61.44-31.573H208.24c-1.707,0-3.413,0-5.12,0
		c-3.413-0.853-6.827-0.853-10.24-1.707h-1.707c-2.56-0.853-5.973-1.707-9.387-2.56l-1.707-0.853
		c-3.413-0.853-5.973-2.56-9.387-4.267l-0.853-0.853c-3.413-2.56-5.973-4.267-8.533-5.973c-2.56-1.707-5.12-3.413-6.827-4.267
		c-0.853-0.853-1.707-0.853-3.413-1.707c-9.387-5.12-20.48-9.387-32.427-12.8l9.387-23.893c85.333,25.6,89.6,24.747,92.16,23.893
		C260.294,261.827,291.014,255,296.134,255c2.56,0.853,10.24,6.827,14.507,10.24c9.387,7.68,18.773,15.36,27.307,15.36h40.96h28.16
		c2.56,0.853,11.093,6.827,18.773,13.653c0.853,5.12,4.267,16.213,5.973,23.04L363.547,359.107z"/>
	<path d="M297.84,255c-0.853,0-2.56,0-3.413-0.853c-4.267-1.707-5.973-6.827-4.267-11.093c10.24-22.187,18.773-152.747-33.28-212.48
		c-3.413-3.413-2.56-9.387,0.853-11.947c3.413-3.413,9.387-2.56,11.947,0.853c55.467,64.853,49.493,200.533,34.987,231.253
		C303.814,253.293,301.254,255,297.84,255z"/>
	<path d="M306.374,178.2c-0.853,0-2.56,0-3.413-0.853c-4.267-1.707-5.973-6.827-4.267-11.093c1.707-4.267,4.267-11.093,6.827-18.773
		c6.827-19.627,15.36-44.373,28.16-59.733c3.413-3.413,8.533-4.267,11.947-0.853c3.413,3.413,4.267,8.533,0.853,11.947
		c-11.093,12.8-18.773,36.693-25.6,54.613c-2.56,8.533-5.12,15.36-7.68,20.48C312.347,176.493,309.787,178.2,306.374,178.2z"/>
	<path d="M302.107,220.013c-3.413,0-6.827-2.56-7.68-5.973c-4.267-11.093-11.093-21.333-21.333-29.867
		c-3.413-2.56-4.267-8.533-1.707-11.947s8.533-4.267,11.947-1.707c12.8,10.24,22.187,23.04,27.307,37.547
		c1.707,4.267-0.853,9.387-5.12,11.093C304.667,220.013,303.814,220.013,302.107,220.013z"/>
	<path d="M340.507,101.4h-8.533v-8.533C331.974,40.813,373.787-1,425.84-1h8.533v8.533C434.374,59.587,392.56,101.4,340.507,101.4z
		 M416.454,16.92c-34.987,4.267-63.147,32.427-67.413,67.413C384.88,80.067,413.04,51.907,416.454,16.92z"/>
	<path d="M289.307,186.733h-8.533c-20.48-0.853-39.253-9.387-52.907-24.747S206.534,127,207.387,106.52v-8.533h8.533
		c42.667,1.707,75.093,37.547,73.387,80.213V186.733z M224.454,116.76c1.707,12.8,6.827,23.893,15.36,33.28
		c8.533,9.387,19.627,15.36,32.427,17.92C268.827,143.213,250.054,121.88,224.454,116.76z"/>
	<path d="M289.307,77.507c-0.853,0-1.707,0-1.707,0c-5.12-1.707-8.533-5.973-6.827-11.093c5.973-22.187,17.92-46.08,28.16-57.173
		c3.413-3.413,8.533-3.413,11.947,0c3.413,3.413,3.413,8.533,0,11.947c-8.533,8.533-18.773,29.867-23.893,48.64
		C296.134,74.947,292.72,77.507,289.307,77.507z"/>
	<path d="M297.84,118.467c-2.56,0-4.267-0.853-5.973-2.56l-1.707-2.56c-8.533-8.533-24.747-25.6-39.253-29.867
		c-4.267-1.707-6.827-5.973-5.973-11.093c0.853-5.12,5.973-6.827,11.093-5.973c18.773,5.973,36.693,23.893,46.933,34.133
		l1.707,1.707c3.413,3.413,3.413,8.533,0,11.947C302.107,117.613,299.547,118.467,297.84,118.467z"/>
</g>
</svg>